<svg id="Layer_1" data-name="Layer 1" xmlns="http://www.w3.org/2000/svg" viewBox="0 0 1024 1024"><defs><style>.cls-1{fill:#a2c7ff;}.cls-2{fill:none;stroke-linecap:round;stroke-width:60px;}.cls-2,.cls-3,.cls-4{stroke:#000;stroke-miterlimit:10;}.cls-3{stroke-width:40px;}.cls-4{stroke-width:14px;}</style></defs><circle class="cls-1" cx="512" cy="512" r="512"/><path class="cls-2" d="M673,396.528A141.474,141.474,0,0,1,673,596.6"/><path class="cls-2" d="M748.61,320.918c98.934,98.935,100.5,257.776,3.49,354.783"/><path class="cls-2" d="M829.113,240.415C973.391,384.693,975.67,616.336,834.2,757.8"/><path class="cls-3" d="M165.751,731.63H513.608c26.378,0,97.367,77.309,97.367,50.931V241.786c0-26.378-70.989,46.326-97.367,46.326H165.751a47.879,47.879,0,0,0-47.83,47.83V683.8A47.879,47.879,0,0,0,165.751,731.63Zm347.857-26.09H165.751A21.761,21.761,0,0,1,144.01,683.8V655.527L244.571,554.958l54.064,54.064a13.039,13.039,0,0,0,18.446,0L429.608,496.5l159.075,106.5V747.885C588.683,759.877,525.6,705.54,513.608,705.54ZM165.751,314.2H513.608c11.991,0,75.075-51.382,75.075-39.39V573.269L438.83,468.826a13.041,13.041,0,0,0-18.446,0L307.858,581.353l-54.064-54.064a13.427,13.427,0,0,0-18.446,0L144.01,618.634V335.942A21.761,21.761,0,0,1,165.751,314.2Z"/><path class="cls-4" d="M270.108,470.737a47.83,47.83,0,1,0-47.83-47.83A47.878,47.878,0,0,0,270.108,470.737Zm0-69.571a21.741,21.741,0,1,1-21.741,21.741A21.761,21.761,0,0,1,270.108,401.166Z"/></svg>